<svg xmlns="http://www.w3.org/2000/svg" viewBox="0 0 500 500">
  <defs>
    <linearGradient gradientUnits="userSpaceOnUse" x1="241.563" y1="108.202" x2="241.563" y2="294.11" id="gradient-0" gradientTransform="matrix(0.95899, 0, 0, 0.968153, 10.202474, 2.853841)">
      <stop offset="0" style="stop-color: rgba(69, 69, 134, 1)"/>
      <stop offset="1" style="stop-color: rgba(34, 34, 67, 1)"/>
    </linearGradient>
  </defs>
  <ellipse style="stroke: rgb(0, 0, 0); fill: url(#gradient-0);" cx="241.859" cy="197.603" rx="89.994" ry="89.994"/>
  <path d="M 253.542 203.016 L 240.775 227.19 L 227.952 202.959 L 222.313 213.372 L 233.59 234.652 C 233.905 235.22 234.192 235.787 234.506 236.355 L 235.05 237.348 C 235.165 237.546 235.251 237.745 235.365 237.915 C 235.68 238.539 235.966 239.078 236.338 239.504 C 237.34 240.696 239 241.462 240.689 241.462 C 241.061 241.462 241.434 241.433 241.777 241.377 C 242.493 241.263 243.208 240.979 243.924 240.554 C 244.41 240.27 244.84 239.816 245.384 239.022 C 246.471 237.49 247.33 235.844 248.246 234.085 L 248.761 233.092 L 259.238 213.287 L 253.542 203.016 Z" fill="white"/>
  <path d="M 224.946 197.313 L 204.852 159.321 L 204.823 159.321 L 203.993 157.845 C 203.764 157.42 203.421 157.022 202.963 156.625 C 201.903 155.859 200.758 155.49 199.327 155.49 C 197.896 155.49 196.751 155.859 195.692 156.682 C 194.662 157.505 194.175 158.413 194.175 159.548 C 194.175 160.229 194.347 160.853 194.719 161.392 L 194.776 161.477 L 219.107 207.329 L 224.946 197.313 Z" fill="white"/>
  <path d="M 285.658 156.682 C 284.627 155.859 283.454 155.49 282.023 155.49 C 280.591 155.49 279.446 155.859 278.445 156.654 C 277.729 157.193 277.3 157.76 277.128 158.384 L 277.071 158.555 L 256.547 197.369 L 262.415 207.329 L 286.631 161.534 L 286.917 160.824 C 287.089 160.427 287.175 160.002 287.175 159.519 C 287.175 158.413 286.688 157.505 285.658 156.682 Z" fill="white"/>
  <path d="M 240.661 155.49 C 242.349 155.49 244.01 156.228 245.012 157.448 C 245.384 157.902 245.67 158.441 245.985 159.037 C 246.071 159.236 246.185 159.434 246.3 159.604 L 246.843 160.597 C 247.158 161.165 247.445 161.732 247.759 162.3 L 286.545 235.503 L 286.602 235.589 C 286.975 236.156 287.146 236.752 287.146 237.433 C 287.146 238.568 286.66 239.476 285.629 240.27 C 284.599 241.093 283.425 241.462 281.994 241.462 C 280.563 241.462 279.418 241.093 278.359 240.299 C 277.901 239.901 277.557 239.504 277.328 239.079 L 276.498 237.603 L 276.469 237.603 L 240.603 169.79 L 204.308 238.426 L 204.251 238.596 C 204.05 239.192 203.621 239.759 202.934 240.327 C 201.932 241.121 200.787 241.49 199.356 241.49 C 197.925 241.49 196.78 241.121 195.721 240.299 C 194.69 239.476 194.204 238.568 194.204 237.461 C 194.204 236.979 194.289 236.553 194.461 236.156 L 194.747 235.447 L 232.589 163.86 L 233.104 162.867 C 234.02 161.137 234.879 159.463 235.966 157.93 C 236.51 157.164 236.939 156.71 237.426 156.398 C 238.17 155.944 238.857 155.689 239.573 155.575 C 239.945 155.519 240.289 155.49 240.661 155.49 Z" fill="white"/>
</svg>